<svg width="27" height="22" viewBox="0 0 27 22" fill="none" xmlns="http://www.w3.org/2000/svg">
<path d="M26.2822 3.16996C25.318 3.59751 24.2808 3.88669 23.193 4.01584C24.3036 3.35044 25.1559 2.29761 25.5582 1.04102C24.519 1.65748 23.3675 2.10469 22.143 2.34574C21.162 1.30092 19.7642 0.647964 18.2164 0.647964C15.2468 0.647964 12.8384 3.05645 12.8384 6.02605C12.8384 6.44759 12.8861 6.85789 12.9783 7.25175C8.50869 7.02755 4.54562 4.88658 1.89287 1.63181C1.43003 2.42595 1.16451 3.35044 1.16451 4.3359C1.16451 6.20132 2.11467 7.84816 3.55695 8.81235C2.67578 8.78468 1.84595 8.54283 1.12119 8.13894C1.12079 8.1618 1.12079 8.18466 1.12079 8.20712C1.12079 10.8129 2.97539 12.9864 5.43521 13.4801C4.9844 13.6037 4.50832 13.669 4.0186 13.669C3.67126 13.669 3.33476 13.6357 3.00667 13.5732C3.69092 15.7093 5.67666 17.2643 8.0306 17.308C6.18965 18.7507 3.871 19.6102 1.35061 19.6102C0.917446 19.6102 0.48829 19.585 0.0683594 19.5348C2.44717 21.0613 5.27478 21.9513 8.31176 21.9513C18.204 21.9513 23.6138 13.7565 23.6138 6.64893C23.6138 6.4159 23.6086 6.18367 23.5981 5.95345C24.6498 5.19541 25.5614 4.24846 26.2822 3.16996Z" fill="#F1F2F2"/>
</svg>
