<svg width="30" height="18" viewBox="0 0 30 18" fill="none" xmlns="http://www.w3.org/2000/svg">
<path fill-rule="evenodd" clip-rule="evenodd" d="M14.6502 17.3683H16.4161C16.4161 17.3683 16.9496 17.3097 17.2219 17.0161C17.4726 16.7466 17.4646 16.2404 17.4646 16.2404C17.4646 16.2404 17.4301 13.8708 18.5298 13.5219C19.614 13.1781 21.0061 15.8121 22.4817 16.8248C23.5975 17.5913 24.4454 17.4232 24.4454 17.4232L28.3909 17.3683C28.3909 17.3683 30.4549 17.2411 29.4762 15.6183C29.396 15.4856 28.9063 14.4179 26.5427 12.224C24.0688 9.92776 24.4001 10.2992 27.3802 6.32723C29.1951 3.90829 29.9206 2.4315 29.694 1.79899C29.4778 1.19656 28.143 1.35579 28.143 1.35579L23.7006 1.38347C23.7006 1.38347 23.3713 1.33855 23.1271 1.48454C22.8884 1.62773 22.7348 1.96143 22.7348 1.96143C22.7348 1.96143 22.0317 3.83329 21.094 5.42519C19.1158 8.78427 18.3249 8.96155 18.0016 8.75298C17.2496 8.26687 17.4373 6.80011 17.4373 5.75809C17.4373 2.50289 17.931 1.14563 16.4759 0.794277C15.993 0.677562 15.6376 0.600554 14.4027 0.58812C12.8176 0.571676 11.476 0.592933 10.7163 0.965139C10.211 1.21261 9.82111 1.7641 10.0586 1.79578C10.3521 1.83509 11.0171 1.97507 11.3697 2.45516C11.8249 3.07444 11.8089 4.4654 11.8089 4.4654C11.8089 4.4654 12.0704 8.29735 11.198 8.77344C10.5992 9.09992 9.77779 8.43332 8.01423 5.38588C7.11058 3.82487 6.42834 2.0994 6.42834 2.0994C6.42834 2.0994 6.29679 1.77693 6.06215 1.60447C5.77738 1.3955 5.37951 1.32892 5.37951 1.32892L1.1581 1.3566C1.1581 1.3566 0.524389 1.37424 0.29176 1.64979C0.0848011 1.89485 0.275316 2.40182 0.275316 2.40182C0.275316 2.40182 3.58025 10.1339 7.32236 14.0304C10.7536 17.6029 14.6502 17.3683 14.6502 17.3683Z" fill="white"/>
</svg>
